<svg id="Layer_1" data-name="Layer 1" xmlns="http://www.w3.org/2000/svg" viewBox="0 0 512.76 381.13"><defs></defs><path class="cls-1" d="M1224.67,1280.54a19.09,19.09,0,0,0-10.1-10.1,18,18,0,0,0-7.51-1.44h0l-29.69.81h-97.79L1006.62,1252a5,5,0,1,0-2.37,9.77l73.53,18.13h99.71l29.69-.86a8.91,8.91,0,0,1,3.46.7,9,9,0,0,1,4.77,4.77,9,9,0,0,1,.69,3.6l1.37,52.14V1391a14.36,14.36,0,0,1-.76,4.6,14.73,14.73,0,0,1-2.12,4,14,14,0,0,1-3.22,3.11l-.33.24a19.62,19.62,0,0,0-2.63-1.84l-52.77-23.52-4.58-8.62a88.14,88.14,0,0,0,12.56-9.89,44.26,44.26,0,0,0,14.64,17.61,5,5,0,0,0,5.67-8.3c-7.8-5.35-11.5-13.61-12.88-17.5a47.06,47.06,0,0,0,7.37-13.7,5,5,0,1,0-9.56-3.11c-4.06,12.45-16.07,21.69-22.54,25.94l-6.63-12.5a5,5,0,1,0-8.88,4.71l17.56,33.14,55.68,24.79a9.64,9.64,0,0,1-6.17,18L1106.61,1406l-47.18-50.94H988.8a5.12,5.12,0,0,0-5.16,4.57,5,5,0,0,0,5,5.49H1055l46.26,49.94,94.4,22.93a20.32,20.32,0,0,0,3.94.39,19.7,19.7,0,0,0,19.67-19.69,19.17,19.17,0,0,0-1.91-8,24.22,24.22,0,0,0,10.14-19.7v-50.92l-1.37-52.18A18.77,18.77,0,0,0,1224.67,1280.54Z" transform="translate(-983.62 -1160.57)"/><path class="cls-1" d="M1491.35,1355.1h-70.78L1373.39,1406l-91.09,22.13a9.65,9.65,0,0,1-6.63-17.86l56-24.92,17.56-33.14a5,5,0,1,0-8.88-4.71l-6.63,12.5c-6.47-4.25-18.48-13.49-22.54-25.94a5,5,0,1,0-9.56,3.11,47.14,47.14,0,0,0,7.38,13.71c-1.36,3.87-5,12.09-12.89,17.49a5,5,0,1,0,5.67,8.3,44.26,44.26,0,0,0,14.64-17.61,88.14,88.14,0,0,0,12.56,9.89l-4.58,8.62-53,23.65a20.06,20.06,0,0,0-2.38,1.69l-.31-.22a14.14,14.14,0,0,1-3.21-3.11,14.73,14.73,0,0,1-2.12-4,14.36,14.36,0,0,1-.76-4.6V1340.4l1.26-52.38a8.83,8.83,0,0,1,.69-3.46,9.34,9.34,0,0,1,1.91-2.84,9.17,9.17,0,0,1,2.86-1.92,8.58,8.58,0,0,1,3.33-.7l30,.76h98.39l74.72-18a5,5,0,1,0-2.37-9.77l-73,17.75h-97.66l-30-.77a19,19,0,0,0-17.49,11.6,18.55,18.55,0,0,0-1.49,7.24l-1.26,52.42V1391a24.46,24.46,0,0,0,4.9,14.64,26.33,26.33,0,0,0,5.23,5,19.41,19.41,0,0,0-1.9,8,19.66,19.66,0,0,0,19.67,19.67,20.72,20.72,0,0,0,4.12-.42l94.22-22.88,46.26-49.94h66.23a5.12,5.12,0,0,0,5.16-4.57A5,5,0,0,0,1491.35,1355.1Z" transform="translate(-983.62 -1160.57)"/><path class="cls-1" d="M1235.57,1165.75v70.1a5.13,5.13,0,0,0,4.58,5.16,5,5,0,0,0,5.48-5v-70.4a5,5,0,0,0-5.48-5A5.13,5.13,0,0,0,1235.57,1165.75Z" transform="translate(-983.62 -1160.57)"/><path class="cls-1" d="M1208.29,1247.24a5,5,0,0,0,7.11-7.11l-49.78-49.79a5,5,0,0,0-7.11,7.11Z" transform="translate(-983.62 -1160.57)"/><path class="cls-1" d="M1269,1248.71a5,5,0,0,0,3.55-1.47l49.79-49.79a5,5,0,1,0-7.11-7.11l-49.79,49.79a5,5,0,0,0,3.56,8.58Z" transform="translate(-983.62 -1160.57)"/><path class="cls-1" d="M1235.57,1466.41v70.1a5.14,5.14,0,0,0,4.58,5.17,5,5,0,0,0,5.48-5v-70.41a5,5,0,0,0-5.48-5A5.13,5.13,0,0,0,1235.57,1466.41Z" transform="translate(-983.62 -1160.57)"/><path class="cls-1" d="M1208.29,1455l-49.78,49.78a5,5,0,0,0,3.56,8.59,5,5,0,0,0,3.55-1.48l49.78-49.78a5,5,0,0,0-7.11-7.11Z" transform="translate(-983.62 -1160.57)"/><path class="cls-1" d="M1272.58,1455a5,5,0,0,0-7.11,7.11l49.79,49.78a5,5,0,1,0,7.11-7.11Z" transform="translate(-983.62 -1160.57)"/><path class="cls-1" d="M1418.36,1227.58a5.21,5.21,0,0,0,1.77-.32l7.12-2.68,2.67,7.12a5,5,0,0,0,4.71,3.26,4.89,4.89,0,0,0,1.76-.32,5,5,0,0,0,2.94-6.47l-2.67-7.12,7.11-2.67a5,5,0,0,0-3.53-9.42l-7.12,2.67-2.67-7.11a5,5,0,0,0-9.41,3.53l2.67,7.12-7.12,2.67a5,5,0,0,0,1.77,9.74Z" transform="translate(-983.62 -1160.57)"/><path class="cls-1" d="M1377.53,1244.48l1,0a16.33,16.33,0,0,0,11.35-5.51,16.49,16.49,0,1,0-12.34,5.54Zm-4.79-20.75a6.42,6.42,0,1,1,9.61,8.53,6.43,6.43,0,0,1-9.08.54A6.44,6.44,0,0,1,1372.74,1223.73Z" transform="translate(-983.62 -1160.57)"/><path class="cls-1" d="M1106.25,1228.85l7.49,1.31-1.31,7.49a5,5,0,0,0,4.09,5.82,5.1,5.1,0,0,0,.87.07,5,5,0,0,0,4.94-4.16l1.31-7.48,7.5,1.31a5,5,0,0,0,1.72-9.91l-7.48-1.31,1.31-7.49a5,5,0,1,0-9.91-1.73l-1.3,7.48-7.5-1.31a5,5,0,0,0-1.73,9.91Z" transform="translate(-983.62 -1160.57)"/><path class="cls-1" d="M1061.67,1222.54a16.32,16.32,0,0,0,7.5,1.83,16.49,16.49,0,1,0-14.65-24,16.5,16.5,0,0,0,7.15,22.18Zm5.4-20.78a6.43,6.43,0,0,1,4,12.23h0a6.43,6.43,0,0,1-4-12.23Z" transform="translate(-983.62 -1160.57)"/></svg>